<?xml version="1.0" encoding="utf-8"?>
<!-- Svg Vector Icons : http://www.onlinewebfonts.com/icon -->
<!DOCTYPE svg PUBLIC "-//W3C//DTD SVG 1.1//EN" "http://www.w3.org/Graphics/SVG/1.1/DTD/svg11.dtd">
<svg version="1.1" xmlns="http://www.w3.org/2000/svg" xmlns:xlink="http://www.w3.org/1999/xlink" x="0px" y="0px" viewBox="0 0 1000 1000" enable-background="new 0 0 1000 1000" xml:space="preserve">
<metadata> Svg Vector Icons : http://www.onlinewebfonts.com/icon </metadata>
<g><path d="M272.3,60c-0.1,0-0.1,0-0.2,0.1c-0.4,0.1-0.9,0.3-1.2,0.6l-46.1,42.9c-0.3,0.2-0.4,0.5-0.6,0.9l-12.9,35.2c-0.1,0.3-0.1,0.7-0.1,1l4.9,41.7l1.3,10.7l-30.2,82.2c-31,44.5-52.3,94.9-62.7,147.9l-8-46.1l9.5-30.8l6.1-20.2c0.1-0.3,0.2-0.6,0.1-1l-6.4-37c0-0.3-0.2-0.7-0.4-1l-12.6-16.8l-12.5-16.9l-12.6-16.9c-0.5-0.7-1.4-1-2.2-0.9c-0.3,0-0.5,0.1-0.8,0.3c-0.1,0-0.1,0.1-0.2,0.2c-0.3,0.3-0.6,0.7-0.7,1.1l-6.1,20.1l-6.2,20.1l-6.1,20.1c-0.1,0.3-0.1,0.7-0.1,1.1l6.4,36.9c0.1,0.3,0.2,0.7,0.4,1l12.5,16.8l12.5,16.9l6.4,8.6l15,86.5c-0.9,10.9-1.4,21.8-1.4,32.8c0,44.2,7.4,86.7,21,126.4l-29.9-35.9l-2.5-11l-4.7-20.5l-4.8-20.5c-0.1-0.3-0.2-0.7-0.4-0.9l-24.1-28.8c-0.2-0.3-0.5-0.5-0.8-0.6l-57.9-24.9c-1-0.5-2.4,0-2.9,1c0,0.1,0,0.1-0.1,0.2c-0.2,0.4-0.2,0.9-0.1,1.3l4.7,20.5l4.7,20.5l4.7,20.5c0.1,0.3,0.2,0.7,0.5,0.9l24,28.8c0.2,0.3,0.5,0.4,0.8,0.6L88,592.3l9.9,4.2l56.2,67.4c23.2,49.2,56.4,92.8,96.9,128.2l-44.2-16.2l-7.7-8.2l-14.3-15.4l-14.4-15.4c-0.2-0.2-0.5-0.4-0.8-0.6l-35.2-12.9c-0.3-0.1-0.7-0.2-1-0.2l-20.9,2.5l-41.7,4.9c-1.1,0.1-2,1.2-2,2.3c0,0.1,0,0.1,0.1,0.2c0.1,0.4,0.3,0.9,0.6,1.2l42.9,46.1c0.2,0.3,0.5,0.4,0.9,0.6l35.2,12.9c0.3,0.1,0.7,0.2,1,0.1l52.4-6.1l82.7,30.4c43.5,30.3,93.6,51.9,147.5,62.4l-46.3,8l-51-15.6c-0.3-0.1-0.6-0.2-1-0.1l-37,6.4c-0.3,0-0.7,0.2-1,0.4l-16.9,12.6l-33.7,25.1c-0.9,0.6-1.2,2-0.6,2.9c0,0.1,0.1,0.1,0.2,0.2c0.3,0.3,0.7,0.6,1.1,0.7l20.1,6.1l20.1,6.2l20.1,6.1c0.3,0.1,0.7,0.1,1,0.1l37-6.3c0.3-0.1,0.6-0.2,0.9-0.5l42.3-31.5l86.8-15c6.2,0.5,12.3,0.8,18.6,1.1v0.2c2.3,0,4.7-0.1,7-0.1c2.3,0,4.7,0.1,7,0.1v-0.2c6.2-0.2,12.4-0.6,18.6-1.1l86.8,15l8.6,6.4l33.7,25.1c0.3,0.2,0.6,0.4,0.9,0.5l37,6.3c0.3,0.1,0.7,0,1-0.1l20.1-6.1l20.1-6.2l20.1-6.1c0.4-0.1,0.8-0.4,1.1-0.7c0.1,0,0.1-0.1,0.2-0.2c0.6-0.9,0.3-2.3-0.6-2.9l-33.7-25.1L704,879.9c-0.3-0.2-0.6-0.4-1-0.4l-37-6.4c-0.3,0-0.6,0-1,0.1l-51,15.6l-46.3-8c54-10.5,104-32.1,147.5-62.4l82.7-30.4l10.7,1.3l41.7,4.9c0.3,0,0.7,0,1-0.1l35.2-12.9c0.3-0.1,0.6-0.3,0.9-0.6l42.9-46.1c0.3-0.3,0.5-0.7,0.6-1.2c0-0.1,0-0.1,0.1-0.2c0.1-1.1-0.9-2.2-2-2.3l-62.6-7.4c-0.3,0-0.7,0-1,0.2l-35.2,12.9c-0.3,0.1-0.6,0.3-0.8,0.6l-14.4,15.4l-22,23.6l-44.2,16.2c40.6-35.3,73.7-79,96.9-128.2l56.2-67.4l9.9-4.2l38.6-16.6c0.3-0.1,0.6-0.3,0.8-0.6l24-28.8c0.2-0.3,0.4-0.6,0.5-0.9l4.7-20.5l4.7-20.5l4.7-20.5c0.1-0.4,0.1-0.9-0.1-1.3c0-0.1,0-0.1-0.1-0.2c-0.5-1-1.9-1.4-2.9-1l-19.2,8.3l-38.6,16.6c-0.3,0.1-0.6,0.3-0.8,0.6l-24.1,28.8c-0.2,0.3-0.3,0.6-0.4,0.9l-4.8,20.5l-4.7,20.5l-2.5,11l-30,35.9c13.6-39.6,21-82.1,21-126.4c0-11-0.5-21.9-1.4-32.8l15-86.5l6.4-8.6l12.5-16.9l12.5-16.8c0.2-0.3,0.3-0.6,0.4-1l6.4-36.9c0.1-0.3,0-0.7-0.1-1.1l-6.1-20.1l-6.2-20.1l-6.1-20.1c-0.1-0.4-0.4-0.8-0.7-1.1c0-0.1-0.1-0.1-0.2-0.2c-0.2-0.2-0.5-0.2-0.8-0.3c-0.8-0.1-1.7,0.2-2.2,0.9l-12.6,16.9l-12.5,16.9l-12.6,16.8c-0.2,0.3-0.3,0.6-0.4,1l-6.4,37c0,0.3,0,0.6,0.1,1l6.1,20.2l9.5,30.8l-8,46.1c-10.4-53-31.7-103.3-62.7-147.9l-30.2-82.2l1.3-10.7l4.9-41.7c0-0.3,0-0.7-0.1-1l-12.9-35.2c-0.1-0.3-0.3-0.6-0.6-0.9l-46.1-42.9c-0.3-0.3-0.7-0.5-1.2-0.6c-0.1,0-0.1,0-0.2-0.1c-1.1-0.1-2.2,0.9-2.3,2l-4.9,41.7l-2.5,20.9c0,0.3,0,0.7,0.2,1l12.9,35.2c0.1,0.3,0.3,0.6,0.6,0.8l15.4,14.4l23.6,22l21,57.3l-3.1,2.6l-104.9-87.5l-1.5-3.6l-16.7-38.6l-28.8-24L592,93.9l-0.6-0.5l-0.3,0.3l-15.9-3.7l6.4,15.1l-0.7,0.8l1.6,1.3l0.9,2.1l8.3,19.3l8.3,19.3l28.8,24l43.2,9.9l106.1,88.5c12.5,15.7,23.7,32.3,33.4,49.7l-84.1-38.9l-1.1-1.4l-25.7-32.6l-33-15.3l-20.5,0.8l-21,0.7l-16.7,0.6l23.4,29.6l12.6,16.1l33.1,15.3l20.5-0.8l23.9-0.8l98.4,45.5c23.8,49.3,36.4,103.6,36.4,159.1c0,1.7,0,3.4-0.1,5.1l-53.3-75.5l-0.3-1.8l-3-20.8l-2.9-20.3L777.5,355l-18.2-9.6l-18.5-9.9l-14.8-7.8l2.4,16.5l3.1,20.8l2.9,20.3l21,29.8l18.2,9.6l18.5,9.8l2.6,1.4l62.3,88.5c-4.2,58.5-22.1,113.1-50.5,160.7l-8.4-92.2l0.7-1.7l7.8-19.5l7.6-19l-3.2-36.2l-22.1-35.2l-8.8-14.2l-6.2,15.5l-7.8,19.6l-7.6,19l3.3,36.3l10.9,17.4l12.6,20.3l9.7,107.9c-31.9,46.9-74.4,86-124.1,113.8l38.9-84l1.4-1.1l32.6-25.7l15.3-33l-0.8-20.5l-0.7-21l-0.6-16.7l-29.6,23.4l-16.1,12.6l-15.3,33.1l0.8,20.5l0.7,21l0.1,2.9l-45.5,98.4c-37.1,18-77.7,29.9-120.5,34.4l-20.5-14.4l52.2-36.8l1.8-0.2l41.1-5.9l29.8-21l9.6-18.2l9.9-18.5l7.8-14.8l-37.4,5.5l-20.3,2.9l-29.8,21l-9.6,18.2l-9.9,18.5l-1.4,2.6L500,838.7l-55.2-38.9l-1.4-2.6l-9.9-18.5l-9.6-18.2l-29.8-21l-20.3-2.9l-37.4-5.5l7.8,14.8l9.9,18.5l9.6,18.2l29.8,21l42.9,6.2l52.2,36.8l-20.5,14.4c-42.8-4.5-83.4-16.4-120.5-34.4l-45.5-98.4l0.1-2.9l0.7-21l0.8-20.5l-15.3-33.1l-16.1-12.6l-29.6-23.4l-0.6,16.7l-0.7,21l-0.8,20.5l15.3,33l34,26.8l38.9,84c-49.7-27.8-92.2-66.9-124.1-113.8l9.7-107.9l1.6-2.5l11.1-17.8l10.9-17.4l3.3-36.3l-7.6-19l-7.8-19.6l-6.2-15.5l-8.8,14.2L189,516.5l-3.2,36.2l7.6,19l7.8,19.5l0.7,1.7l-8.4,92.2C165,637.6,147.1,583,143,524.5l62.3-88.5l2.6-1.4l18.5-9.8l18.2-9.6l21-29.8l2.9-20.3l3.1-20.8l2.4-16.5l-14.8,7.8l-18.5,9.9l-18.2,9.6l-20.9,29.8l-2.9,20.3l-3,20.8l-0.3,1.8l-53.3,75.5c0-1.7-0.1-3.4-0.1-5.1c0-55.5,12.6-109.8,36.4-159.1l98.4-45.5l23.9,0.8l20.5,0.8l33.1-15.3l12.6-16.1l23.4-29.6l-16.7-0.6l-21-0.7l-20.5-0.8l-33,15.3l-26.8,34l-84.1,38.9c9.7-17.4,20.9-34,33.4-49.7l106.1-88.5l2.2-0.5l41-9.4l28.8-24l8.3-19.3l8.3-19.3l0.9-2.1l1.6-1.3l-0.7-0.8l6.4-15.1l-15.9,3.7l-0.3-0.3l-0.6,0.5l-3.7,0.9l-41,9.4l-28.8,24l-16.7,38.6l-1.5,3.6l-104.9,87.5l-3.1-2.6l21-57.3l39-36.3c0.2-0.2,0.4-0.5,0.6-0.8l12.9-35.2c0.1-0.3,0.2-0.7,0.2-1l-2.5-20.9L274.5,62C274.4,60.9,273.4,60,272.3,60L272.3,60z M500,854.6l11.4,8c-3.8,0.2-7.6,0.3-11.4,0.4c-3.8-0.1-7.6-0.2-11.4-0.4L500,854.6z"/></g>
</svg>